<svg width="180" height="180" viewBox="0 0 180 180" fill="none" xmlns="http://www.w3.org/2000/svg">
<path fill-rule="evenodd" clip-rule="evenodd" d="M64 0H0V64C0 41.5979 0 30.3968 4.35974 21.8404C8.19467 14.3139 14.3139 8.19467 21.8404 4.35974C30.3968 0 41.5979 0 64 0ZM116 0C138.402 0 149.603 0 158.16 4.35974C165.686 8.19467 171.805 14.3139 175.64 21.8404C180 30.3968 180 41.5979 180 64V0H116ZM0 116V180H64C41.5979 180 30.3968 180 21.8404 175.64C14.3139 171.805 8.19467 165.686 4.35974 158.16C0 149.603 0 138.402 0 116ZM116 180H180V116C180 138.402 180 149.603 175.64 158.16C171.805 165.686 165.686 171.805 158.16 175.64C149.603 180 138.402 180 116 180Z" fill="#D9D9D9"/>
</svg>
