<svg width="20" height="20" viewBox="0 0 20 20" fill="none" xmlns="http://www.w3.org/2000/svg">
<path d="M10 19.7646C8.70736 19.7646 7.48893 19.5173 6.34473 19.0225C5.20671 18.5277 4.20166 17.8442 3.32959 16.9722C2.45752 16.1001 1.77409 15.0951 1.2793 13.957C0.784505 12.8128 0.537109 11.5944 0.537109 10.3018C0.537109 9.00911 0.784505 7.79378 1.2793 6.65576C1.77409 5.51156 2.45443 4.50342 3.32031 3.63135C4.19238 2.75928 5.19743 2.07585 6.33545 1.58105C7.47965 1.08626 8.69808 0.838867 9.99072 0.838867C11.2834 0.838867 12.5018 1.08626 13.646 1.58105C14.7902 2.07585 15.7983 2.75928 16.6704 3.63135C17.5425 4.50342 18.2259 5.51156 18.7207 6.65576C19.2155 7.79378 19.4629 9.00911 19.4629 10.3018C19.4629 11.5944 19.2155 12.8128 18.7207 13.957C18.2259 15.0951 17.5425 16.1001 16.6704 16.9722C15.7983 17.8442 14.7902 18.5277 13.646 19.0225C12.508 19.5173 11.2926 19.7646 10 19.7646ZM10 18.1875C11.0947 18.1875 12.1183 17.9834 13.0708 17.5752C14.0233 17.167 14.8613 16.6042 15.585 15.8867C16.3086 15.1631 16.8714 14.325 17.2734 13.3726C17.6816 12.4201 17.8857 11.3965 17.8857 10.3018C17.8857 9.20703 17.6816 8.18343 17.2734 7.23096C16.8652 6.27848 16.2993 5.44043 15.5757 4.7168C14.8582 3.99316 14.0202 3.43034 13.0615 3.02832C12.109 2.62012 11.0854 2.41602 9.99072 2.41602C8.896 2.41602 7.8724 2.62012 6.91992 3.02832C5.96745 3.43034 5.13249 3.99316 4.41504 4.7168C3.69759 5.44043 3.13477 6.27848 2.72656 7.23096C2.32454 8.18343 2.12354 9.20703 2.12354 10.3018C2.12354 11.3965 2.32454 12.4201 2.72656 13.3726C3.13477 14.325 3.69759 15.1631 4.41504 15.8867C5.13867 16.6042 5.97673 17.167 6.9292 17.5752C7.88167 17.9834 8.90527 18.1875 10 18.1875Z" fill="#007AFF"/>
</svg>
