<svg width="22" height="18" viewBox="0 0 22 18" fill="none" xmlns="http://www.w3.org/2000/svg">
<path d="M1.05469 3.89307H20.9453V5.20117H1.05469V3.89307ZM2.9751 17.8462C2.00407 17.8462 1.27425 17.605 0.785645 17.1226C0.303223 16.6463 0.0620117 15.932 0.0620117 14.9795V3.64258C0.0620117 2.68392 0.303223 1.96647 0.785645 1.49023C1.27425 1.00781 2.00407 0.766602 2.9751 0.766602H19.0249C20.0021 0.766602 20.7319 1.00781 21.2144 1.49023C21.6968 1.97266 21.938 2.6901 21.938 3.64258V14.9795C21.938 15.932 21.6968 16.6463 21.2144 17.1226C20.7319 17.605 20.0021 17.8462 19.0249 17.8462H2.9751ZM2.99365 16.3525H19.0063C19.464 16.3525 19.8166 16.2319 20.064 15.9907C20.3175 15.7433 20.4443 15.3784 20.4443 14.896V3.72607C20.4443 3.24365 20.3175 2.87874 20.064 2.63135C19.8166 2.38395 19.464 2.26025 19.0063 2.26025H2.99365C2.52979 2.26025 2.17415 2.38395 1.92676 2.63135C1.67936 2.87874 1.55566 3.24365 1.55566 3.72607V14.896C1.55566 15.3784 1.67936 15.7433 1.92676 15.9907C2.17415 16.2319 2.52979 16.3525 2.99365 16.3525ZM4.05127 14.0796V12.688C4.05127 12.4468 4.12549 12.252 4.27393 12.1035C4.42855 11.9551 4.62956 11.8809 4.87695 11.8809H17.1509C17.3983 11.8809 17.5962 11.9551 17.7446 12.1035C17.8993 12.252 17.9766 12.4468 17.9766 12.688V14.0796C17.9766 14.3208 17.8993 14.5156 17.7446 14.6641C17.5962 14.8125 17.3983 14.8867 17.1509 14.8867H4.87695C4.62956 14.8867 4.42855 14.8125 4.27393 14.6641C4.12549 14.5156 4.05127 14.3208 4.05127 14.0796Z" fill="#FFFFFF"/>
</svg>
